<svg width="27" height="26" viewBox="0 0 27 26" fill="none" xmlns="http://www.w3.org/2000/svg">
<mask id="mask0_1_780" style="mask-type:alpha" maskUnits="userSpaceOnUse" x="0" y="0" width="27" height="26">
<rect x="0.5" width="26" height="26" fill="#D9D9D9"/>
</mask>
<g mask="url(#mask0_1_780)">
<path d="M21.5492 9.57082C21.0867 8.54894 20.4229 7.63148 19.58 6.84082C18.7371 6.05763 17.76 5.43853 16.671 5.00591C15.5447 4.55837 14.3512 4.33459 13.1205 4.33459C11.8898 4.33459 10.6963 4.55837 9.56999 5.00591C8.48097 5.43853 7.50384 6.05017 6.66097 6.84082C5.8181 7.63148 5.15426 8.54894 4.6918 9.57082C4.21442 10.63 3.96826 11.7638 3.96826 12.9274C3.96826 14.9637 4.72907 16.918 6.12391 18.4694L5.37801 22.5346L9.34622 20.7668C10.5322 21.274 11.7928 21.5276 13.113 21.5276C14.3438 21.5276 15.5372 21.3039 16.6635 20.8563C17.7525 20.4237 18.7297 19.8121 19.5725 19.0214C20.4154 18.2307 21.0793 17.3133 21.5417 16.2914C22.0191 15.2322 22.2652 14.0984 22.2652 12.9348C22.2727 11.7638 22.0266 10.6375 21.5492 9.57082Z" stroke="black" stroke-width="0.7"/>
<path d="M16.8311 14.6452C16.4432 14.4513 16.1598 14.3319 15.9584 14.2574C15.8316 14.2126 15.5333 14.0783 15.4288 14.1604C15.1006 14.4289 14.7501 15.1897 14.3771 15.3315C13.4522 15.1524 12.5944 14.5184 11.9231 13.8695C11.6247 13.586 11.0728 12.7805 10.9534 12.5642C10.931 12.3404 11.3338 12.042 11.4233 11.8705C11.8858 11.3483 11.5352 11.0201 11.4756 10.8038C11.3711 10.5801 11.1921 10.1773 11.0355 9.84908C10.9012 9.63277 10.8713 9.31203 10.6327 9.19268C9.61823 8.67055 9.03646 9.71482 8.79777 10.2593C7.35818 13.7278 16.0106 20.329 17.771 15.779C17.8605 15.3837 17.8232 15.2345 17.6889 15.0555C17.4204 14.869 17.1071 14.7869 16.8311 14.6452Z" stroke="black" stroke-width="0.7"/>
</g>
</svg>
