<svg width="27" height="26" viewBox="0 0 27 26" fill="none" xmlns="http://www.w3.org/2000/svg">
<mask id="mask0_1_775" style="mask-type:alpha" maskUnits="userSpaceOnUse" x="0" y="0" width="27" height="26">
<rect x="0.5" width="26" height="26" fill="#D9D9D9"/>
</mask>
<g mask="url(#mask0_1_775)">
<path d="M20.6772 21.3417C18.98 21.3417 17.215 20.8948 15.3824 20.001C13.5498 19.1073 11.8345 17.8569 10.2366 16.25C8.63866 14.643 7.39282 12.9278 6.49907 11.1042C5.60532 9.28055 5.15845 7.52013 5.15845 5.82291C5.15845 5.49014 5.26678 5.2129 5.48345 4.99118C5.70011 4.76928 5.97095 4.65833 6.29595 4.65833H8.46261C8.76956 4.65833 9.03588 4.75312 9.26157 4.9427C9.48727 5.13228 9.64525 5.38055 9.73553 5.68749L10.223 7.90832C10.2772 8.21527 10.2682 8.4861 10.1959 8.72082C10.1237 8.95555 9.99734 9.14513 9.81678 9.28958L7.5147 11.375C7.98414 12.2236 8.49421 13.0045 9.04491 13.7177C9.5956 14.4309 10.1779 15.1035 10.7918 15.7354C11.4418 16.3854 12.1459 16.9903 12.9043 17.55C13.6626 18.1097 14.5022 18.6424 15.423 19.1479L17.6709 16.8458C17.8515 16.6472 18.0456 16.5208 18.2532 16.4667C18.4609 16.4125 18.7001 16.4035 18.9709 16.4396L20.8126 16.8187C21.1196 16.891 21.3678 17.0444 21.5574 17.2792C21.747 17.5139 21.8418 17.7847 21.8418 18.0917V20.2042C21.8418 20.5292 21.7308 20.8 21.5089 21.0167C21.2872 21.2333 21.01 21.3417 20.6772 21.3417ZM7.16261 10.6708L9.32928 8.72082C9.41956 8.6486 9.47824 8.5493 9.50532 8.42291C9.53241 8.29652 9.52789 8.17916 9.49178 8.07083L9.00428 5.84999C8.96817 5.70555 8.90497 5.59721 8.8147 5.52499C8.72442 5.45277 8.60706 5.41666 8.46261 5.41666H6.29595C6.18761 5.41666 6.09734 5.45277 6.02511 5.52499C5.95289 5.59721 5.91678 5.68749 5.91678 5.79583C5.91678 6.5361 6.02963 7.32152 6.25532 8.15208C6.48102 8.98263 6.78345 9.82221 7.16261 10.6708ZM16.1543 19.5C16.8946 19.8792 17.6935 20.1545 18.5512 20.326C19.4088 20.4976 20.1265 20.5833 20.7043 20.5833C20.8126 20.5833 20.9029 20.5472 20.9751 20.475C21.0473 20.4028 21.0834 20.3125 21.0834 20.2042V18.0917C21.0834 17.9472 21.0473 17.8299 20.9751 17.7396C20.9029 17.6493 20.7946 17.5861 20.6501 17.55L18.8084 17.1708C18.7001 17.1347 18.6053 17.1302 18.5241 17.1573C18.4428 17.1844 18.3571 17.243 18.2668 17.3333L16.1543 19.5Z" fill="#1C1B1F"/>
</g>
</svg>
