<svg width="34" height="34" viewBox="0 0 34 34" fill="none" xmlns="http://www.w3.org/2000/svg">
<path d="M25.5819 6.18555C24.4637 6.18555 23.625 7.02906 23.625 8.15375C23.625 9.27843 24.4637 10.1219 25.5819 10.1219C26.7001 10.1219 27.5388 9.27843 27.5388 8.15375C27.5388 7.02906 26.7001 6.18555 25.5819 6.18555Z" fill="white"/>
<path d="M16.7703 8.7168C12.1577 8.7168 8.52344 12.5126 8.52344 17.0114C8.52344 21.5101 12.2974 25.3059 16.7703 25.3059C21.2432 25.3059 25.0172 21.5101 25.0172 17.0114C25.0172 12.5126 21.383 8.7168 16.7703 8.7168ZM16.7703 22.3536C13.835 22.3536 11.4588 19.9637 11.4588 17.0114C11.4588 14.0591 13.835 11.6691 16.7703 11.6691C19.7056 11.6691 22.0818 14.0591 22.0818 17.0114C22.0818 19.9637 19.7056 22.3536 16.7703 22.3536Z" fill="white"/>
<path d="M23.4826 0H10.2038C4.47288 0 0 4.49874 0 10.1222V23.4778C0 29.1013 4.47288 33.6 10.064 33.6H23.3428C28.9339 33.6 33.4068 29.1013 33.4068 23.4778V10.1222C33.5466 4.49874 29.0737 0 23.4826 0ZM30.3317 23.6184C30.3317 27.4142 27.2566 30.6477 23.3428 30.6477H10.064C6.28999 30.6477 3.0751 27.5548 3.0751 23.6184V10.2628C3.0751 6.46695 6.15021 3.23347 10.064 3.23347H23.3428C27.1168 3.23347 30.3317 6.32636 30.3317 10.2628V23.6184Z" fill="white"/>
</svg>
