<svg width="34" height="34" viewBox="0 0 34 34" fill="none" xmlns="http://www.w3.org/2000/svg">
<path d="M25.8208 5.6001H7.59536C6.47652 5.6001 5.57031 6.51137 5.57031 7.63646V25.9637C5.57031 27.0888 6.47652 28.0001 7.59536 28.0001H25.8208C26.9397 28.0001 27.8459 27.0888 27.8459 25.9637V7.63646C27.8459 6.51137 26.9397 5.6001 25.8208 5.6001ZM12.6114 23.9274H9.62446V14.2628H12.6114V23.9274ZM11.0876 12.8811C10.1247 12.8811 9.34602 12.0961 9.34602 11.1298C9.34602 10.1636 10.1257 9.37959 11.0876 9.37959C12.0474 9.37959 12.8281 10.1646 12.8281 11.1298C12.8281 12.0961 12.0474 12.8811 11.0876 12.8811ZM23.7998 23.9274H20.8149V19.2274C20.8149 18.1064 20.7946 16.6647 19.2627 16.6647C17.7085 16.6647 17.4695 17.8855 17.4695 19.146V23.9274H14.4846V14.2628H17.35V15.5834H17.3905C17.7895 14.8238 18.7635 14.0225 20.2165 14.0225C23.2409 14.0225 23.7998 16.0242 23.7998 18.6267V23.9274Z" fill="white"/>
</svg>
