<svg width="34" height="34" viewBox="0 0 34 34" fill="none" xmlns="http://www.w3.org/2000/svg">
<path d="M21.7424 16.0496C21.6587 16.0092 21.5738 15.9704 21.4877 15.9333C21.3378 13.156 19.8287 11.5661 17.2948 11.5498C17.2833 11.5497 17.2719 11.5497 17.2604 11.5497C15.7447 11.5497 14.4842 12.2003 13.7084 13.3841L15.102 14.3454C15.6815 13.4612 16.5912 13.2727 17.261 13.2727C17.2688 13.2727 17.2766 13.2727 17.2842 13.2727C18.1185 13.2781 18.7481 13.522 19.1556 13.9977C19.4522 14.3441 19.6505 14.8227 19.7487 15.4267C19.009 15.3002 18.209 15.2614 17.3537 15.3107C14.9446 15.4502 13.3957 16.8632 13.4998 18.8265C13.5525 19.8224 14.0459 20.6791 14.889 21.2388C15.6017 21.7119 16.5197 21.9433 17.4738 21.8909C18.7338 21.8215 19.7222 21.3381 20.4118 20.4542C20.9355 19.7829 21.2667 18.913 21.413 17.817C22.0134 18.1814 22.4585 18.6609 22.7042 19.2374C23.1221 20.2173 23.1465 21.8276 21.8399 23.1404C20.6951 24.2905 19.319 24.788 17.2393 24.8034C14.9324 24.7862 13.1877 24.0422 12.0533 22.5921C10.9911 21.2342 10.4421 19.273 10.4216 16.7627C10.4421 14.2524 10.9911 12.2911 12.0533 10.9332C13.1877 9.48315 14.9323 8.73919 17.2393 8.72195C19.5629 8.73932 21.338 9.48686 22.5158 10.9439C23.0933 11.6585 23.5287 12.5571 23.8158 13.6048L25.4489 13.1666C25.1009 11.877 24.5535 10.7657 23.8085 9.84411C22.2986 7.97607 20.0903 7.01887 17.245 6.99902H17.2336C14.394 7.0188 12.2105 7.97964 10.7436 9.85482C9.43822 11.5235 8.76488 13.8454 8.74226 16.7558L8.74219 16.7627L8.74226 16.7695C8.76488 19.68 9.43822 22.0019 10.7436 23.6706C12.2105 25.5457 14.394 26.5066 17.2336 26.5263H17.245C19.7695 26.5087 21.5489 25.8441 23.0148 24.3713C24.9327 22.4445 24.875 20.0293 24.2429 18.5467C23.7894 17.4835 22.9247 16.6199 21.7424 16.0496ZM17.3836 20.1705C16.3277 20.2303 15.2307 19.7537 15.1767 18.7329C15.1366 17.976 15.7123 17.1315 17.4484 17.0309C17.6472 17.0193 17.8423 17.0137 18.034 17.0137C18.6646 17.0137 19.2546 17.0753 19.7909 17.1932C19.5908 19.7055 18.4174 20.1134 17.3836 20.1705Z" fill="white"/>
</svg>
