<svg width="70" height="70" viewBox="0 0 70 70" fill="none" xmlns="http://www.w3.org/2000/svg">
<rect width="70" height="70" rx="16" fill="#E2EFFF"/>
<mask id="mask0_1958_2713" style="mask-type:alpha" maskUnits="userSpaceOnUse" x="15" y="15" width="40" height="40">
<rect x="15" y="15" width="40" height="40" fill="#D9D9D9"/>
</mask>
<g mask="url(#mask0_1958_2713)">
<path d="M35 49.5C32.3889 49.5 30.25 49.1944 28.5833 48.5833C26.9167 47.9722 26.0833 47.1806 26.0833 46.2083C26.0833 45.7361 26.3403 45.2778 26.8542 44.8333C27.3681 44.3889 28.0694 44.0139 28.9583 43.7083C29.0972 43.6528 29.25 43.6597 29.4167 43.7292C29.5833 43.7986 29.6944 43.9028 29.75 44.0417C29.8056 44.1806 29.7917 44.3264 29.7083 44.4792C29.625 44.6319 29.5139 44.7361 29.375 44.7917C28.9028 44.9583 28.4514 45.1667 28.0208 45.4167C27.5903 45.6667 27.3333 45.9167 27.25 46.1667C27.3889 46.75 28.1875 47.2569 29.6458 47.6875C31.1042 48.1181 32.8889 48.3333 35 48.3333C37.1111 48.3333 38.8958 48.1181 40.3542 47.6875C41.8125 47.2569 42.6111 46.75 42.75 46.1667C42.6667 45.9167 42.4097 45.6667 41.9792 45.4167C41.5486 45.1667 41.0972 44.9583 40.625 44.7917C40.4861 44.7361 40.375 44.6319 40.2917 44.4792C40.2083 44.3264 40.1944 44.1806 40.25 44.0417C40.3056 43.9028 40.4167 43.7986 40.5833 43.7292C40.75 43.6597 40.9028 43.6528 41.0417 43.7083C41.9306 44.0139 42.6319 44.3889 43.1458 44.8333C43.6597 45.2778 43.9167 45.7361 43.9167 46.2083C43.9167 47.1806 43.0833 47.9722 41.4167 48.5833C39.75 49.1944 37.6111 49.5 35 49.5ZM35.0417 43.0417C37.8194 40.8472 39.8958 38.7153 41.2708 36.6458C42.6458 34.5764 43.3333 32.5556 43.3333 30.5833C43.3333 27.6389 42.4375 25.4167 40.6458 23.9167C38.8542 22.4167 36.9722 21.6667 35 21.6667C33.0556 21.6667 31.1806 22.4167 29.375 23.9167C27.5694 25.4167 26.6667 27.6389 26.6667 30.5833C26.6667 32.5278 27.3542 34.5278 28.7292 36.5833C30.1042 38.6389 32.2083 40.7917 35.0417 43.0417ZM35 43.875C34.75 43.875 34.5 43.8264 34.25 43.7292C34 43.6319 33.7639 43.5 33.5417 43.3333C30.8472 41.1111 28.8333 38.9444 27.5 36.8333C26.1667 34.7222 25.5 32.6389 25.5 30.5833C25.5 28.9167 25.7847 27.4583 26.3542 26.2083C26.9236 24.9583 27.6667 23.9097 28.5833 23.0625C29.5 22.2153 30.5208 21.5764 31.6458 21.1458C32.7708 20.7153 33.8889 20.5 35 20.5C36.1111 20.5 37.2292 20.7153 38.3542 21.1458C39.4792 21.5764 40.5 22.2153 41.4167 23.0625C42.3333 23.9097 43.0764 24.9583 43.6458 26.2083C44.2153 27.4583 44.5 28.9167 44.5 30.5833C44.5 32.6389 43.8333 34.7222 42.5 36.8333C41.1667 38.9444 39.1528 41.1111 36.4583 43.3333C36.2361 43.5 36 43.6319 35.75 43.7292C35.5 43.8264 35.25 43.875 35 43.875ZM35 32.875C35.6944 32.875 36.2847 32.6389 36.7708 32.1667C37.2569 31.6944 37.5 31.0972 37.5 30.375C37.5 29.6806 37.2569 29.0903 36.7708 28.6042C36.2847 28.1181 35.6944 27.875 35 27.875C34.3333 27.875 33.75 28.1181 33.25 28.6042C32.75 29.0903 32.5 29.6806 32.5 30.375C32.5 31.0972 32.75 31.6944 33.25 32.1667C33.75 32.6389 34.3333 32.875 35 32.875Z" fill="#1656A5"/>
</g>
</svg>
